<?xml version="1.0" standalone="no"?>
<!DOCTYPE svg PUBLIC "-//W3C//DTD SVG 20010904//EN"
 "http://www.w3.org/TR/2001/REC-SVG-20010904/DTD/svg10.dtd">
<svg version="1.0" xmlns="http://www.w3.org/2000/svg"
 width="673.000000pt" height="514.000000pt" viewBox="0 0 673.000000 514.000000"
 preserveAspectRatio="xMidYMid meet">

<g transform="translate(0.000000,514.000000) scale(0.100000,-0.100000)"
fill="#000000" stroke="none">
<path d="M4815 4484 c-88 -20 -218 -75 -298 -127 -76 -49 -190 -163 -239 -237
-47 -73 -105 -208 -125 -289 -8 -36 -18 -129 -22 -206 l-6 -140 -320 -5 -320
-5 0 -1320 c0 -1250 1 -1323 18 -1380 42 -136 145 -269 258 -333 30 -17 98
-43 150 -57 l94 -25 650 1 c881 1 1416 12 1476 32 132 43 264 154 327 274 64
121 62 67 62 1505 l0 1308 -317 2 -318 3 -7 148 c-9 178 -23 240 -88 373 -109
225 -293 383 -532 459 -108 34 -331 44 -443 19z m403 -433 c187 -98 280 -269
270 -497 l-3 -69 -477 -3 -478 -2 0 112 c0 177 43 285 153 384 103 93 197 125
348 120 102 -3 109 -5 187 -45z m-805 -855 c73 -30 124 -124 111 -206 -26
-162 -244 -208 -339 -70 -23 33 -28 51 -28 98 0 32 7 70 15 87 20 37 65 81 98
94 36 14 106 13 143 -3z m1361 -20 c94 -72 109 -187 34 -272 -41 -47 -82 -66
-138 -66 -62 0 -116 26 -150 74 -55 75 -52 159 7 228 48 55 84 71 155 67 43
-2 65 -10 92 -31z"/>
<path d="M634 2376 c-46 -46 -46 -86 1 -133 l34 -34 155 3 c148 3 156 4 180
27 21 20 26 34 26 72 0 40 -4 51 -31 73 -30 25 -34 26 -181 26 l-150 0 -34
-34z"/>
<path d="M1215 2398 c-74 -40 -73 -139 2 -177 15 -8 200 -11 623 -11 l602 0
34 34 c46 46 46 86 0 132 l-34 34 -604 0 c-419 -1 -609 -4 -623 -12z"/>
<path d="M87 1869 c-23 -13 -47 -62 -47 -95 0 -16 12 -38 34 -60 l34 -34 1178
0 c920 0 1185 3 1204 13 14 7 33 29 44 50 15 32 16 42 6 68 -7 16 -24 39 -38
49 -24 20 -46 20 -1211 20 -787 -1 -1192 -4 -1204 -11z"/>
<path d="M817 1302 c-36 -37 -38 -99 -4 -130 l23 -22 578 0 577 0 24 25 c39
38 37 88 -6 128 l-29 27 -568 0 -568 0 -27 -28z"/>
<path d="M272 1287 c-31 -33 -30 -96 1 -125 22 -20 33 -22 159 -22 136 0 137
0 157 26 29 37 27 89 -4 119 -23 24 -29 25 -158 25 -127 0 -135 -1 -155 -23z"/>
</g>
</svg>
